<svg width="1512" height="2027" viewBox="0 0 1512 2027" fill="none" xmlns="http://www.w3.org/2000/svg">
<g opacity="0.05" clip-path="url(#clip0_28_522)">
<mask id="mask0_28_522" style="mask-type:luminance" maskUnits="userSpaceOnUse" x="-111" y="49" width="1977" height="1978">
<path d="M892.485 49.8814L1865.57 1053.14L862.428 2026.12L-110.659 1022.86L892.485 49.8814Z" fill="white"/>
</mask>
<g mask="url(#mask0_28_522)">
<path d="M1766.04 973.599C1774.33 982.241 1772.9 993.773 1762.84 998.947C1656.31 1053.85 1551.77 1078.02 1448.54 1082.19C1438.8 1082.57 1427.01 1074.93 1422.2 1065.35C1386.18 994.022 1350.16 922.674 1314.14 851.335C1309.35 841.755 1311.28 833.877 1318.48 833.596C1395.4 830.491 1473.3 812.484 1552.69 771.574C1560.13 767.745 1572.9 771.419 1581.22 780.07C1642.83 844.578 1704.43 909.091 1766.04 973.599ZM1821.97 1049.72C1823.83 1051.69 1823.36 1054.37 1820.94 1055.63C1811.72 1060.42 1802.53 1065.01 1793.36 1069.4C1790.93 1070.54 1787.51 1069.82 1785.74 1067.82C1774.69 1055.28 1763.65 1042.75 1752.61 1030.23C1750.85 1028.25 1751.29 1025.72 1753.59 1024.62C1762.34 1020.45 1771.1 1016.07 1779.87 1011.5C1782.19 1010.29 1785.58 1010.9 1787.42 1012.85C1798.93 1025.15 1810.44 1037.44 1821.97 1049.72ZM1735.04 1089.58C1736.7 1091.64 1736.11 1094.09 1733.71 1095.02C1724.59 1098.5 1715.48 1101.79 1706.39 1104.91C1703.99 1105.73 1700.73 1104.67 1699.14 1102.58C1689.23 1089.6 1679.31 1076.62 1669.39 1063.65C1667.82 1061.58 1668.38 1059.26 1670.66 1058.49C1679.33 1055.53 1688.02 1052.38 1696.72 1049.05C1699 1048.18 1702.23 1049.13 1703.88 1051.16C1714.27 1063.97 1724.65 1076.77 1735.04 1089.58ZM1648.85 1117.55C1650.34 1119.68 1649.65 1121.9 1647.26 1122.51C1638.21 1124.83 1629.17 1126.95 1620.13 1128.91C1617.79 1129.42 1614.7 1128.08 1613.28 1125.95C1604.48 1112.67 1595.69 1099.38 1586.89 1086.1C1585.5 1084 1586.2 1081.87 1588.42 1081.37C1597.04 1079.51 1605.66 1077.47 1614.29 1075.27C1616.54 1074.7 1619.59 1075.95 1621.07 1078.05C1630.32 1091.22 1639.59 1104.38 1648.85 1117.55ZM1563.39 1134.79C1564.7 1136.94 1563.84 1138.98 1561.52 1139.3C1552.54 1140.55 1543.55 1141.63 1534.59 1142.56C1532.23 1142.81 1529.34 1141.23 1528.09 1139.06C1520.4 1125.61 1512.72 1112.16 1505.04 1098.7C1503.82 1096.57 1504.6 1094.62 1506.85 1094.39C1515.4 1093.5 1523.96 1092.47 1532.52 1091.28C1534.73 1090.97 1537.65 1092.47 1538.95 1094.6C1547.1 1108 1555.24 1121.39 1563.39 1134.79ZM1478.56 1142.44C1479.67 1144.61 1478.71 1146.47 1476.35 1146.55C1467.45 1146.85 1458.53 1147 1449.64 1147.04C1447.29 1147.04 1444.53 1145.26 1443.46 1143.09C1436.89 1129.59 1430.3 1116.08 1423.71 1102.58C1422.68 1100.43 1423.63 1098.66 1425.86 1098.66C1434.34 1098.63 1442.83 1098.47 1451.33 1098.19C1453.57 1098.11 1456.31 1099.82 1457.43 1101.96C1464.48 1115.45 1471.51 1128.95 1478.56 1142.44ZM1402.31 1065.49C1406.98 1075.04 1402.88 1082.82 1393.19 1082.57C1290.41 1079.91 1188.78 1059.19 1087.65 1031.18C1078.1 1028.53 1069.32 1018.98 1068.07 1009.98C1058.4 942.758 1048.74 875.552 1039.07 808.325C1037.8 799.312 1042.5 793.629 1049.55 795.587C1124.92 816.459 1200.64 831.902 1277.23 833.88C1284.41 834.063 1294.01 841.862 1298.7 851.428C1333.24 922.777 1367.78 994.13 1402.31 1065.49ZM1394.27 1141.71C1395.23 1143.88 1394.11 1145.55 1391.78 1145.4C1382.92 1144.89 1374.06 1144.25 1365.21 1143.5C1362.89 1143.31 1360.26 1141.36 1359.39 1139.2C1353.9 1125.74 1348.41 1112.29 1342.91 1098.84C1342.05 1096.71 1343.15 1095.1 1345.36 1095.29C1353.78 1096 1362.23 1096.6 1370.68 1097.1C1372.9 1097.24 1375.49 1099.11 1376.44 1101.24C1382.38 1114.73 1388.33 1128.21 1394.27 1141.71ZM1310.43 1133.73C1311.21 1135.87 1309.97 1137.38 1307.66 1137.06C1298.84 1135.84 1290.03 1134.53 1281.21 1133.13C1278.91 1132.76 1276.46 1130.7 1275.74 1128.56C1271.34 1115.24 1266.94 1101.93 1262.55 1088.61C1261.86 1086.51 1263.07 1085.04 1265.26 1085.39C1273.66 1086.73 1282.06 1088 1290.48 1089.15C1292.69 1089.45 1295.1 1091.45 1295.87 1093.56C1300.72 1106.96 1305.58 1120.34 1310.43 1133.73ZM1227 1119.68C1227.62 1121.8 1226.23 1123.15 1223.95 1122.69C1215.15 1120.9 1206.37 1119.04 1197.6 1117.09C1195.29 1116.58 1193 1114.44 1192.47 1112.33C1189.15 1099.23 1185.84 1086.12 1182.53 1073.01C1182 1070.94 1183.34 1069.6 1185.53 1070.1C1193.9 1071.96 1202.27 1073.74 1210.66 1075.45C1212.81 1075.88 1215.13 1077.98 1215.71 1080.07C1219.48 1093.26 1223.25 1106.47 1227 1119.68ZM1143.91 1100.72C1144.35 1102.8 1142.82 1104.03 1140.51 1103.43C1131.76 1101.2 1123.02 1098.9 1114.29 1096.56C1111.98 1095.94 1109.81 1093.74 1109.45 1091.68C1107.22 1078.83 1104.99 1066 1102.75 1053.17C1102.41 1051.12 1103.89 1049.93 1106.09 1050.52C1114.43 1052.76 1122.76 1054.95 1131.1 1057.08C1133.28 1057.65 1135.44 1059.8 1135.87 1061.85C1138.55 1074.81 1141.23 1087.76 1143.91 1100.72ZM1022.07 769.901C1022.32 771.945 1021.25 773.231 1019.68 772.762C1013.71 771.009 1007.75 769.231 1001.78 767.424C1000.21 766.941 998.764 764.919 998.586 762.903C997.439 750.381 996.283 737.859 995.132 725.332C994.944 723.317 995.992 722.066 997.451 722.501C1003.02 724.19 1008.57 725.845 1014.14 727.48C1015.6 727.915 1017 729.904 1017.26 731.933C1018.86 744.593 1020.46 757.252 1022.07 769.901ZM1061.05 1078.03C1061.32 1080.06 1059.64 1081.18 1057.35 1080.5C1048.62 1077.94 1039.9 1075.34 1031.18 1072.7C1028.89 1072 1026.87 1069.78 1026.67 1067.77C1025.51 1055.25 1024.36 1042.72 1023.21 1030.2C1023.02 1028.21 1024.67 1027.13 1026.85 1027.78C1035.17 1030.29 1043.49 1032.77 1051.81 1035.22C1054 1035.86 1055.98 1038.05 1056.25 1040.05C1057.85 1052.72 1059.45 1065.37 1061.05 1078.03ZM978.333 1052.75C978.424 1054.74 976.647 1055.77 974.35 1055.04C965.633 1052.28 956.908 1049.48 948.189 1046.68C945.926 1045.94 944.055 1043.73 944.031 1041.77C943.961 1029.59 943.882 1017.4 943.816 1005.22C943.791 1003.29 945.568 1002.26 947.725 1002.96C956.039 1005.64 964.349 1008.29 972.67 1010.94C974.846 1011.63 976.689 1013.81 976.762 1015.77C977.281 1028.09 977.814 1040.42 978.333 1052.75ZM895.741 1026.07C895.653 1028 893.712 1028.96 891.445 1028.22C882.732 1025.37 874.009 1022.52 865.297 1019.67C863 1018.92 861.289 1016.76 861.448 1014.87C862.454 1003.03 863.455 991.193 864.456 979.358C864.615 977.476 866.497 976.505 868.683 977.211C876.995 979.928 885.303 982.65 893.625 985.367C895.772 986.074 897.483 988.235 897.392 990.136C896.84 1002.12 896.298 1014.09 895.741 1026.07ZM813.163 999.155C812.896 1001.03 810.801 1001.95 808.514 1001.21C799.814 998.402 791.099 995.616 782.387 992.854C780.095 992.119 778.488 990.025 778.827 988.175C780.899 976.691 782.981 965.198 785.058 953.718C785.395 951.888 787.432 950.955 789.634 951.637C797.94 954.276 806.235 956.944 814.544 959.617C816.725 960.319 818.302 962.423 818.047 964.267C816.419 975.893 814.796 987.524 813.163 999.155ZM730.518 973.162C730.093 974.983 727.851 975.889 725.562 975.198C716.836 972.554 708.119 969.948 699.389 967.392C697.104 966.716 695.626 964.703 696.138 962.91C699.292 951.748 702.451 940.59 705.594 929.438C706.101 927.66 708.314 926.725 710.488 927.368C718.802 929.811 727.124 932.294 735.449 934.81C737.637 935.468 739.066 937.49 738.626 939.297C735.932 950.577 733.228 961.867 730.518 973.162ZM698.017 894.101C695.626 901.988 685.98 906.161 676.432 903.525C575.3 875.5 473.686 854.788 370.904 852.13C361.197 851.874 358.001 845.922 363.771 838.607C406.512 784.146 449.249 729.671 491.99 675.21C497.755 667.9 508.278 661.975 515.442 662.163C592.036 664.146 667.756 679.579 743.123 700.451C750.171 702.404 753.982 710.446 751.616 718.318C733.75 776.915 715.878 835.518 698.017 894.101ZM647.711 949.251C647.097 951.02 644.762 951.961 642.46 951.339C633.708 948.983 624.953 946.686 616.196 944.447C613.922 943.863 612.606 941.957 613.278 940.216C617.519 929.351 621.756 918.481 625.983 907.63C626.663 905.909 629.015 904.933 631.168 905.484C639.518 907.619 647.872 909.808 656.213 912.056C658.398 912.65 659.665 914.567 659.067 916.302C655.28 927.29 651.493 938.278 647.711 949.251ZM564.719 928.6C563.941 930.322 561.437 931.304 559.145 930.804C550.362 928.863 541.585 926.991 532.795 925.206C530.487 924.731 529.322 922.969 530.188 921.256C535.509 910.639 540.826 900.027 546.133 889.414C546.983 887.726 549.435 886.691 551.646 887.138C560.023 888.843 568.398 890.627 576.775 892.474C578.941 892.956 580.094 894.766 579.327 896.468C574.456 907.174 569.585 917.889 564.719 928.6ZM481.45 912.367C480.478 914.061 477.829 915.128 475.503 914.755C466.702 913.357 457.888 912.037 449.08 910.824C446.762 910.5 445.698 908.874 446.739 907.198C453.138 896.776 459.537 886.343 465.941 875.906C466.961 874.25 469.608 873.12 471.814 873.43C480.229 874.584 488.625 875.83 497.013 877.178C499.223 877.523 500.235 879.208 499.308 880.868C493.35 891.369 487.398 901.875 481.45 912.367ZM397.8 901.725C396.672 903.392 393.852 904.587 391.524 904.385C382.682 903.637 373.836 902.996 364.97 902.478C362.624 902.349 361.711 900.888 362.927 899.22C370.417 888.894 377.907 878.568 385.412 868.238C386.592 866.604 389.4 865.346 391.624 865.471C400.065 865.969 408.506 866.579 416.939 867.293C419.166 867.471 420.047 869.001 418.93 870.648C411.888 881.009 404.851 891.364 397.8 901.725ZM511.767 646.872C510.459 648.526 508.107 649.878 506.498 649.889C500.412 649.905 494.317 650.014 488.213 650.215C486.617 650.28 486.45 648.967 487.827 647.313C496.422 636.996 505.021 626.673 513.61 616.361C514.988 614.697 517.331 613.316 518.8 613.262C524.492 613.074 530.172 612.965 535.852 612.948C537.333 612.948 537.49 614.28 536.171 615.944C528.047 626.247 519.907 636.555 511.767 646.872ZM313.696 897.833C312.382 899.492 309.444 900.84 307.092 900.848C298.195 900.877 289.283 901.033 280.354 901.346C278.044 901.417 277.25 900.14 278.637 898.476C287.231 888.159 295.821 877.846 304.42 867.524C305.772 865.884 308.743 864.458 310.946 864.378C319.452 864.099 327.944 863.947 336.441 863.913C338.666 863.905 339.392 865.276 338.115 866.9C329.97 877.213 321.835 887.525 313.696 897.833ZM1.24767 935.734C-8.81628 940.923 -9.35376 938.74 0.0469346 930.485C69.8463 869.18 139.645 807.884 209.46 746.573C218.869 738.338 232.556 728.293 239.984 724.469C319.376 683.549 397.267 665.552 474.204 662.442C481.401 662.156 482.446 668.007 476.539 675.313C432.321 729.789 388.108 784.259 343.886 838.739C337.979 846.055 325.294 852.114 315.555 852.508C212.322 856.673 107.781 880.837 1.24767 935.734ZM229.096 901.859C227.611 903.534 224.484 905.074 222.147 905.322C213.189 906.255 204.215 907.335 195.229 908.585C192.87 908.902 192.234 907.819 193.802 906.138C203.501 895.717 213.204 885.301 222.902 874.88C224.45 873.229 227.532 871.601 229.778 871.281C238.341 870.103 246.903 869.066 255.449 868.176C257.668 867.949 258.285 869.135 256.815 870.776C247.579 881.134 238.338 891.496 229.096 901.859ZM143.91 914.971C142.257 916.667 138.944 918.453 136.572 918.97C127.553 920.929 118.522 923.059 109.479 925.361C107.103 925.975 106.567 925.077 108.313 923.365C119.125 912.728 129.942 902.086 140.754 891.439C142.469 889.757 145.737 887.874 148.014 887.29C156.633 885.09 165.244 883.066 173.849 881.199C176.108 880.708 176.596 881.699 174.954 883.376C164.606 893.911 154.258 904.436 143.91 914.971ZM58.0552 938.326C56.2101 940.078 52.7488 942.149 50.35 942.964C41.2547 946.077 32.1522 949.366 23.0317 952.86C20.6192 953.772 20.2357 953.102 22.165 951.325C34.0914 940.32 46.0328 929.311 57.964 918.311C59.853 916.563 63.2893 914.385 65.5879 913.508C74.2863 910.179 82.9622 907.041 91.6359 904.084C93.9063 903.3 94.2651 904.097 92.4556 905.815C80.9904 916.654 69.52 927.497 58.0552 938.326ZM-28.5785 973.114C-30.6122 974.936 -34.1937 977.321 -36.616 978.478C-45.8116 982.862 -55.0057 987.451 -64.2284 992.264C-66.6151 993.509 -66.8751 993.047 -64.7714 991.185C-51.7094 979.662 -38.6377 968.138 -25.5656 956.605C-23.4928 954.782 -19.8865 952.27 -17.6093 951.076C-8.83111 946.496 -0.046262 942.116 8.71068 937.942C11.0086 936.84 11.2133 937.458 9.21523 939.246C-3.39246 950.535 -15.9806 961.825 -28.5785 973.114ZM292.551 676.037C294.66 674.17 297.601 672.021 299.129 671.225C305.006 668.163 310.873 665.234 316.724 662.441C318.254 661.718 317.872 662.586 315.843 664.403C303.26 675.688 290.657 686.982 278.059 698.271C276.025 700.094 273.062 702.189 271.402 702.982C265.112 705.984 258.822 709.118 252.52 712.404C250.877 713.265 251.251 712.47 253.35 710.613C266.417 699.084 279.484 687.556 292.551 676.037ZM348.515 650.377C350.429 648.604 353.214 646.701 354.753 646.11C360.567 643.879 366.366 641.785 372.17 639.799C373.701 639.281 373.456 640.27 371.616 642.007C360.146 652.851 348.681 663.68 337.211 674.524C335.362 676.261 332.524 678.14 330.889 678.694C324.673 680.816 318.438 683.07 312.202 685.456C310.568 686.093 310.782 685.163 312.705 683.4C324.642 672.386 336.573 661.386 348.515 650.377ZM403.964 632.38C405.714 630.663 408.354 628.967 409.86 628.585C415.629 627.112 421.389 625.752 427.133 624.508C428.647 624.186 428.544 625.281 426.882 626.977C416.539 637.507 406.181 648.042 395.838 658.572C394.156 660.268 391.484 661.931 389.861 662.284C383.692 663.619 377.514 665.077 371.33 666.652C369.7 667.068 369.801 666.012 371.537 664.3C382.354 653.659 393.156 643.022 403.964 632.38ZM458.997 621.284C460.56 619.618 463.017 618.089 464.526 617.884C470.253 617.09 475.981 616.389 481.694 615.805C483.167 615.644 483.205 616.875 481.725 618.535C472.484 628.898 463.242 639.261 454.001 649.623C452.506 651.289 449.998 652.774 448.397 652.946C442.271 653.583 436.131 654.327 429.987 655.169C428.36 655.395 428.349 654.213 429.902 652.537C439.605 642.121 449.303 631.71 458.997 621.284ZM567.869 616.834C569.07 615.171 571.253 613.9 572.745 613.992C578.387 614.323 584.031 614.726 589.677 615.203C591.152 615.34 591.456 616.783 590.323 618.445C583.281 628.806 576.24 639.166 569.198 649.527C568.065 651.189 565.84 652.437 564.246 652.311C558.201 651.789 552.143 651.355 546.091 650.999C544.501 650.908 544.168 649.485 545.384 647.817C552.874 637.491 560.369 627.17 567.869 616.834ZM621.822 621.97C622.853 620.284 624.89 619.107 626.368 619.307C631.987 620.082 637.589 620.921 643.208 621.818C644.685 622.048 645.106 623.612 644.158 625.301C638.211 635.793 632.253 646.294 626.311 656.79C625.343 658.49 623.287 659.648 621.689 659.395C615.681 658.433 609.646 657.535 603.619 656.706C602.019 656.492 601.578 654.938 602.604 653.267C609.008 642.83 615.412 632.402 621.822 621.97ZM675.538 631.015C676.389 629.307 678.263 628.175 679.737 628.473C685.337 629.615 690.935 630.805 696.525 632.05C697.978 632.377 698.557 634.023 697.764 635.75C692.898 646.46 688.037 657.165 683.171 667.876C682.393 669.598 680.461 670.711 678.906 670.37C672.903 669.037 666.894 667.757 660.882 666.537C659.291 666.22 658.727 664.57 659.588 662.862C664.905 652.25 670.212 641.637 675.538 631.015ZM729.03 643.218C729.706 641.473 731.462 640.371 732.893 640.748C738.477 642.178 744.063 643.642 749.644 645.131C751.109 645.531 751.811 647.263 751.182 649.038C747.405 660.016 743.614 670.999 739.837 681.977C739.223 683.746 737.472 684.843 735.891 684.414C729.91 682.797 723.927 681.23 717.927 679.706C716.374 679.306 715.648 677.56 716.335 675.805C720.566 664.939 724.798 654.084 729.03 643.218ZM782.361 657.831C782.873 656.038 784.467 654.943 785.94 655.373C791.5 657.013 797.064 658.668 802.618 660.352C804.086 660.787 804.931 662.625 804.491 664.432C801.782 675.727 799.088 687.007 796.378 698.302C795.943 700.113 794.3 701.218 792.731 700.741C786.772 698.933 780.802 697.146 774.826 695.402C773.251 694.949 772.392 693.096 772.904 691.303C776.053 680.146 779.212 668.988 782.361 657.831ZM835.585 674.095C835.924 672.255 837.391 671.132 838.848 671.606C844.404 673.364 849.958 675.141 855.507 676.933C856.969 677.402 857.944 679.292 857.692 681.161C856.065 692.787 854.432 704.418 852.808 716.049C852.547 717.927 851.05 719.031 849.477 718.529C843.523 716.614 837.563 714.704 831.607 712.809C830.039 712.311 829.021 710.407 829.365 708.552C831.431 697.073 833.513 685.579 835.585 674.095ZM888.778 691.274C888.943 689.367 890.226 688.226 891.697 688.705C897.255 690.516 902.813 692.337 908.376 694.153C909.808 694.623 910.937 696.57 910.85 698.486C910.293 710.473 909.74 722.454 909.193 734.431C909.101 736.362 907.749 737.523 906.195 737.011C900.242 735.057 894.269 733.113 888.312 731.154C886.749 730.642 885.616 728.68 885.781 726.773C886.776 714.943 887.777 703.108 888.778 691.274ZM1009.09 783.891C1016.13 786 1022.78 794.961 1023.92 803.932C1032.12 870.743 1040.35 937.543 1048.57 1004.33C1049.7 1013.31 1042.88 1018.34 1033.34 1015.48C932.366 985.182 831.723 949.509 730.731 919.217C721.212 916.355 715.282 907.666 717.522 899.755C733.934 840.738 750.351 781.725 766.768 722.712C769.003 714.797 776.537 710.043 783.584 712.157C858.849 734.726 933.834 761.312 1009.09 783.891ZM941.936 708.599C941.913 706.63 943.099 705.451 944.552 705.911C950.106 707.708 955.66 709.485 961.23 711.247C962.682 711.716 963.923 713.677 964.014 715.664C964.532 727.997 965.061 740.32 965.59 752.643C965.661 754.63 964.468 755.853 962.91 755.346C956.945 753.451 950.98 751.546 945.016 749.621C943.467 749.124 942.174 747.119 942.166 745.156C942.091 732.965 942.011 720.779 941.936 708.599ZM1048.42 740.712C1048.05 738.655 1048.97 737.322 1050.42 737.713C1056.01 739.211 1061.57 740.685 1067.15 742.111C1068.62 742.467 1070.16 744.455 1070.6 746.536C1073.27 759.497 1075.96 772.444 1078.64 785.395C1079.07 787.486 1078.13 788.858 1076.56 788.459C1070.58 786.92 1064.6 785.357 1058.62 783.746C1057.04 783.327 1055.46 781.286 1055.11 779.223C1052.88 766.389 1050.65 753.551 1048.42 740.712ZM1101.86 754.015C1101.32 751.905 1102.08 750.481 1103.54 750.804C1109.14 752.043 1114.74 753.234 1120.34 754.37C1121.79 754.664 1123.49 756.615 1124.08 758.749C1127.85 771.939 1131.61 785.138 1135.38 798.343C1135.98 800.467 1135.19 801.945 1133.63 801.628C1127.62 800.402 1121.61 799.118 1115.62 797.79C1114.03 797.444 1112.34 795.434 1111.8 793.329C1108.49 780.218 1105.17 767.121 1101.86 754.015ZM1155.46 764.458C1154.75 762.326 1155.39 760.8 1156.85 761.03C1162.46 761.928 1168.08 762.771 1173.71 763.541C1175.18 763.742 1177 765.638 1177.78 767.79C1182.63 781.174 1187.47 794.554 1192.34 807.943C1193.12 810.089 1192.47 811.668 1190.9 811.459C1184.86 810.624 1178.83 809.726 1172.79 808.765C1171.24 808.516 1169.37 806.557 1168.66 804.41C1164.25 791.094 1159.86 777.774 1155.46 764.458ZM1209.3 771.319C1208.42 769.149 1208.93 767.518 1210.41 767.645C1216.04 768.112 1221.69 768.526 1227.33 768.861C1228.81 768.949 1230.81 770.751 1231.76 772.915C1237.7 786.411 1243.65 799.892 1249.59 813.383C1250.55 815.557 1250.03 817.257 1248.43 817.165C1242.36 816.809 1236.32 816.376 1230.26 815.854C1228.67 815.723 1226.66 813.838 1225.77 811.673C1220.28 798.217 1214.79 784.761 1209.3 771.319ZM1263.43 773.815C1262.37 771.643 1262.73 769.9 1264.22 769.89C1269.89 769.874 1275.57 769.779 1281.26 769.581C1282.74 769.533 1284.89 771.226 1286.01 773.403C1293.06 786.898 1300.1 800.397 1307.14 813.887C1308.28 816.059 1307.9 817.885 1306.27 817.94C1300.19 818.141 1294.1 818.255 1288.01 818.276C1286.41 818.282 1284.25 816.505 1283.18 814.328C1276.6 800.819 1270.01 787.32 1263.43 773.815ZM1317.9 771.219C1316.67 769.048 1316.89 767.194 1318.37 767.048C1324.09 766.445 1329.82 765.754 1335.54 764.96C1337.03 764.76 1339.31 766.315 1340.62 768.466C1348.77 781.862 1356.92 795.267 1365.07 808.663C1366.38 810.819 1366.13 812.765 1364.53 812.986C1358.38 813.838 1352.26 814.582 1346.12 815.213C1344.51 815.391 1342.2 813.748 1340.96 811.581C1333.28 798.122 1325.59 784.683 1317.9 771.219ZM1372.74 762.782C1371.31 760.642 1371.42 758.673 1372.91 758.341C1378.68 757.092 1384.44 755.731 1390.21 754.263C1391.71 753.877 1394.14 755.26 1395.64 757.38C1404.89 770.559 1414.16 783.725 1423.42 796.895C1424.91 799.019 1424.82 801.086 1423.18 801.498C1416.99 803.083 1410.81 804.536 1404.63 805.876C1403.02 806.234 1400.54 804.768 1399.13 802.628C1390.33 789.341 1381.54 776.059 1372.74 762.782ZM1428 747.742C1426.4 745.653 1426.37 743.558 1427.9 743.045C1433.7 741.058 1439.51 738.95 1445.32 736.739C1446.86 736.142 1449.44 737.313 1451.1 739.373C1461.5 752.18 1471.89 764.987 1482.26 777.8C1483.93 779.864 1483.95 782.067 1482.31 782.689C1476.08 785.07 1469.84 787.334 1463.63 789.461C1461.97 790.02 1459.36 788.766 1457.76 786.676C1447.84 773.698 1437.92 760.725 1428 747.742ZM1483.75 725.356C1481.97 723.332 1481.8 721.136 1483.34 720.403C1489.2 717.615 1495.06 714.685 1500.93 711.619C1502.46 710.817 1505.21 711.728 1507.07 713.717C1518.59 725.996 1530.11 738.299 1541.62 750.587C1543.47 752.562 1543.64 754.88 1541.97 755.756C1535.68 759.037 1529.39 762.171 1523.12 765.168C1521.46 765.951 1518.67 764.948 1516.88 762.929C1505.85 750.401 1494.8 737.884 1483.75 725.356ZM295.313 668.166C159.988 786.378 24.6478 904.606 -110.677 1022.82C574.294 630.584 1180.59 1445.29 1865.56 1053.05C1745.89 930.932 1626.24 808.817 1506.56 686.702C1086.75 927.104 715.137 427.759 295.313 668.166Z" fill="url(#paint0_linear_28_522)"/>
</g>
</g>
<defs>
<linearGradient id="paint0_linear_28_522" x1="892.498" y1="49.8129" x2="1865.56" y2="1053.05" gradientUnits="userSpaceOnUse">
<stop stop-color="#FF0000"/>
<stop offset="0.489" stop-color="#42FF00"/>
<stop offset="1" stop-color="#2400FF"/>
</linearGradient>
<clipPath id="clip0_28_522">
<rect width="1397.65" height="1469.61" fill="white" transform="translate(943.913) rotate(45.8746)"/>
</clipPath>
</defs>
</svg>
