<svg width="25" height="36" viewBox="0 0 25 36" fill="none" xmlns="http://www.w3.org/2000/svg">
<path d="M22.195 30.7805L24.1463 27.8537C24.2438 27.6585 24.3414 27.3658 24.2438 27.0732C24.1463 26.7805 24.0487 26.5854 23.8536 26.4878C23.3658 26.1951 22.7804 26.2927 22.4877 26.7805L21.0243 29.0244L17.9024 24.3415L21.0243 19.6585L22.4877 21.9024C22.7804 22.2927 23.3658 22.4878 23.8536 22.1951C24.3414 21.9024 24.4389 21.3171 24.1463 20.8293L22.195 17.9024L24.1463 14.9756C24.3414 14.7805 24.3414 14.5854 24.3414 14.2927C24.2438 14 24.1463 13.8049 23.9511 13.7073C23.4633 13.4146 22.878 13.5122 22.5853 14L21.1219 16.2439L17.9999 11.561L21.1219 6.87804L22.5853 9.12194C22.878 9.51219 23.4633 9.70731 23.9511 9.41463C24.1463 9.31707 24.3414 9.02438 24.3414 8.82926C24.4389 8.53658 24.3414 8.34146 24.2438 8.04877L22.2926 5.12194L24.2438 2.19512C24.5365 1.70731 24.4389 1.12194 23.9511 0.829261C23.756 0.7317 23.4633 0.634139 23.1706 0.7317C22.878 0.829261 22.6828 0.926822 22.5853 1.12194L21.1219 3.36585L19.6585 1.12194C19.5609 0.926822 19.2682 0.7317 19.0731 0.7317C18.7804 0.7317 18.5853 0.7317 18.2926 0.829261C17.8048 1.12194 17.7072 1.70731 17.9999 2.19512L19.9511 5.12194L16.8292 9.80487L13.7072 5.12194L15.6585 2.19512C15.9511 1.70731 15.8536 1.12194 15.3658 0.829261C15.1706 0.7317 14.878 0.634139 14.5853 0.7317C14.2926 0.829261 14.0975 0.926822 13.9999 1.12194L12.5365 3.36585L11.0731 1.12194C10.7804 0.634139 10.195 0.536578 9.70723 0.829261C9.21943 1.12194 9.12187 1.70731 9.41455 2.19512L11.3658 5.12194L8.24382 9.80487L5.21943 5.2195L7.17065 2.29268C7.46333 1.80487 7.36577 1.21951 6.87797 0.926822C6.68284 0.7317 6.39016 0.634139 6.09748 0.7317C5.90236 0.7317 5.70723 0.926822 5.51211 1.12194L4.0487 3.46341L2.48772 1.12194C2.19504 0.7317 1.60967 0.536578 1.12187 0.829261C0.731624 1.21951 0.536502 1.80487 0.829185 2.19512L2.7804 5.12194L0.829185 8.04877C0.536502 8.53658 0.634063 9.12194 1.12187 9.41463C1.51211 9.70731 2.19504 9.60975 2.48772 9.12194L3.95114 6.87804L7.07309 11.561L3.95114 16.2439L2.48772 14C2.19504 13.5122 1.60967 13.4146 1.12187 13.7073C0.634063 14 0.536502 14.5854 0.829185 15.0732L2.7804 18L0.829185 20.9268C0.536502 21.4146 0.634063 22 1.12187 22.2927C1.51211 22.5854 2.19504 22.4878 2.48772 22L3.95114 19.7561L7.07309 24.439L3.95114 29.1219L2.48772 26.878C2.19504 26.3902 1.60967 26.2927 1.12187 26.5854C0.926746 26.6829 0.731624 26.9756 0.731624 27.1707C0.634063 27.4634 0.731624 27.6585 0.829185 27.9512L2.7804 30.878L0.829185 33.8049C0.536502 34.2927 0.634063 34.878 1.12187 35.1707C1.51211 35.4634 2.19504 35.3658 2.48772 34.878L3.95114 32.6341L5.41455 34.878C5.70723 35.2683 6.2926 35.4634 6.7804 35.1707C7.26821 34.878 7.36577 34.2927 7.07309 33.8049L5.12187 30.878L8.24382 26.1951L11.3658 30.878L9.41455 33.8049C9.12187 34.2927 9.21943 34.878 9.70723 35.1707C10.0975 35.4634 10.7804 35.3658 11.0731 34.878L12.5365 32.6341L13.9999 34.878C14.2926 35.2683 14.878 35.4634 15.3658 35.1707C15.8536 34.878 15.9511 34.2927 15.6585 33.8049L13.7072 30.878L16.8292 26.1951L19.9511 30.878L17.9999 33.8049C17.7072 34.2927 17.8048 34.878 18.2926 35.1707C18.6828 35.4634 19.3658 35.3658 19.6585 34.878L21.1219 32.6341L22.5853 34.878C22.7804 35.1707 23.0731 35.2683 23.3658 35.2683C23.5609 35.2683 23.756 35.1707 23.9511 35.0732C24.4389 34.7805 24.5365 34.1951 24.2438 33.7073L22.195 30.7805ZM19.8536 18L16.7316 22.6829L13.6097 18L16.7316 13.3171L19.8536 18ZM15.5609 24.439L12.4389 29.1219L9.31699 24.439L12.4389 19.7561L15.5609 24.439ZM9.41455 11.561L12.5365 6.87804L15.6585 11.561L12.5365 16.2439L9.41455 11.561ZM11.3658 18L8.24382 22.6829L5.12187 18L8.24382 13.3171L11.3658 18Z" fill="#2B2929"/>
</svg>
