<svg width="22" height="37" viewBox="0 0 22 37" fill="none" xmlns="http://www.w3.org/2000/svg">
<path d="M19.8049 20.5854C20.8781 15.122 21.3659 9.65854 21.3659 4.19512C21.3659 1.85366 19.5123 0 17.2683 0H5.56103C3.21957 0 1.26835 1.85366 1.26835 4.19512C1.26835 9.65854 1.85371 15.122 2.82932 20.5854C1.56103 21.0732 0.682983 22.3415 0.682983 23.7073V25.3659C0.682983 26.6341 1.65859 27.6098 2.92689 27.6098H10.244V31.7073C7.12201 31.9024 4.19518 32.878 1.95128 34.439C1.75615 34.6341 1.56103 34.8293 1.56103 35.122C1.56103 35.4146 1.56103 35.7073 1.75615 35.9024C2.04884 36.3902 2.73176 36.4878 3.21957 36.1951C5.17079 34.8293 7.70737 33.9512 10.3415 33.7561V35.3171C10.3415 35.9024 10.8293 36.2927 11.3171 36.2927C11.8049 36.2927 12.2927 35.8049 12.2927 35.3171V33.7561C14.9269 33.9512 17.4635 34.7317 19.4147 36.1951C19.6098 36.2927 19.8049 36.3902 20.0001 36.3902C20.2927 36.3902 20.683 36.1951 20.8781 36C21.0732 35.8049 21.0732 35.5122 21.0732 35.2195C21.0732 34.9268 20.8781 34.7317 20.683 34.5366C18.3415 32.8781 15.4147 31.9024 12.3903 31.8049V27.7073H19.7074C20.9757 27.7073 21.9513 26.7317 21.9513 25.4634V23.8049C21.9513 22.3415 21.0732 21.0732 19.8049 20.5854ZM4.19518 22.3415H18.5366C19.3171 22.3415 19.9025 22.9268 19.9025 23.7073V25.3659C19.9025 25.4634 19.8049 25.561 19.7074 25.561H3.02445C2.92689 25.561 2.82932 25.4634 2.82932 25.3659V23.7073C2.82932 22.9268 3.41469 22.3415 4.19518 22.3415ZM17.8537 20.2927H4.87811C3.9025 15.0244 3.31713 9.56098 3.31713 4.19512C3.31713 3.02439 4.29274 2.04878 5.46347 2.04878H17.1708C18.3415 2.04878 19.3171 3.02439 19.3171 4.19512C19.3171 9.56098 18.8293 14.9268 17.8537 20.2927Z" fill="#2B2929"/>
</svg>
